PathFileType	4	(X/Y/Z)	C:/Users/opensim2020/Desktop/walking_exp_matlab/subject02_walking10_straight_04.trc																																																																																																																															
DataRate	CameraRate	NumFrames	NumMarkers	Units	OrigDataRate	OrigDataStartFrame	OrigNumFrames																																																																																																																											
100	100	8	43	mm	100	3084	260																																																																																																																											
Frame#	Time	LFHD			RFHD			LBHD			RBHD			C7			T10			CLAV			STRN			RBAK			LSHO			LUPA			LELB			LFRM			LWRA			LWRB			LFIN			RSHO			RUPA			RELB			RFRM			RWRA			RWRB			RFIN			LASI			RASI			LPSI			RPSI			LTHI			LKNE			LTIB			LANK			LHEE			LTOE			RTHI			RKNE			RTIB			RANK			RHEE			RTOE			*39			*40			*41			*42		
		X1	Y1	Z1	X2	Y2	Z2	X3	Y3	Z3	X4	Y4	Z4	X5	Y5	Z5	X6	Y6	Z6	X7	Y7	Z7	X8	Y8	Z8	X9	Y9	Z9	X10	Y10	Z10	X11	Y11	Z11	X12	Y12	Z12	X13	Y13	Z13	X14	Y14	Z14	X15	Y15	Z15	X16	Y16	Z16	X17	Y17	Z17	X18	Y18	Z18	X19	Y19	Z19	X20	Y20	Z20	X21	Y21	Z21	X22	Y22	Z22	X23	Y23	Z23	X24	Y24	Z24	X25	Y25	Z25	X26	Y26	Z26	X27	Y27	Z27	X28	Y28	Z28	X29	Y29	Z29	X30	Y30	Z30	X31	Y31	Z31	X32	Y32	Z32	X33	Y33	Z33	X34	Y34	Z34	X35	Y35	Z35	X36	Y36	Z36	X37	Y37	Z37	X38	Y38	Z38	X39	Y39	Z39	X40	Y40	Z40	X41	Y41	Z41	X42	Y42	Z42	X43	Y43	Z43
																																																																																																																																		
33	0.32	-529.38135	1763.19043	1080.82703	-510.35358	1736.03845	1221.25232	-634.20258	1654.66162	1074.55237	-626.33502	1622.33972	1216.26099	-656.24951	1522.71924	1132.54382	-702.9245	1249.58838	1141.61731	-515.65552	1460.4187	1113.67224	-460.46457	1286.8136	1115.28027	-706.10187	1349.31641	1195.88074	-586.32935	1507.15466	947.30859	-585.9762	1306.17358	865.02789	-583.69531	1164.93738	855.52759	-567.9425	1034.82788	840.55542	-506.01147	910.20856	869.44946	-551.30078	912.92059	834.99719	-530.71503	849.14575	830.67462	-567.09808	1485.15015	1314.11829	-592.85846	1292.34302	1395.50354	-577.05237	1147.08289	1411.77136	-545.65979	1031.27502	1430.05444	-495.97333	905.16705	1409.19568	-540.91296	901.77222	1443.98242	-503.32047	838.86401	1444.15808	-491.12366	979.9339	991.60651	-453.40997	983.08856	1241.68201	-686.57916	1030.4325	1098.44666	-674.62805	1037.71375	1214.34497	-572.09796	670.8537	930.18146	-596.57452	486.71979	936.05981	-746.2627	376.38455	942.56897	-882.13074	200.27586	970.815	-914.52185	194.58713	1030.50403	-802.35266	70.03656	934.12909	-489.02313	680.70001	1318.64612	-474.53363	471.38611	1272.24634	-506.72141	284.27106	1277.17334	-522.87579	93.33582	1235.87207	-559.80212	40.83821	1181.29419	-369.0668	39.52976	1240.53979	-635.91705	1790.42615	1184.57764	-2845.12793	1034.17017	3360.35059	NaN	NaN	NaN	NaN	NaN	NaN
34	0.33	-521.68756	1764.44214	1082.13953	-502.09714	1737.4314	1222.6394	-626.38727	1655.86157	1076.34583	-618.01862	1623.69482	1218.09351	-648.07568	1524.15796	1134.96228	-695.02899	1251.07434	1144.97559	-507.74915	1461.54919	1115.00989	-452.63382	1287.93811	1116.5592	-697.77167	1351.37634	1199.53467	-579.75775	1507.90759	949.1236	-581.84991	1306.70593	867.19843	-580.37048	1165.60083	857.815	-567.16248	1035.78638	841.86035	-507.0708	909.83563	869.47827	-552.79871	913.48651	835.85944	-533.68085	848.97003	831.31488	-557.3548	1486.93909	1316.12793	-582.08716	1294.08337	1398.63904	-565.85693	1148.77942	1414.77112	-533.5351	1033.16418	1432.81641	-483.03989	907.51422	1411.5741	-527.76556	903.68884	1446.64136	-489.49744	841.2489	1446.73474	-484.55753	981.41638	992.3374	-445.57443	983.18048	1243.14771	-679.30823	1031.56189	1101.85388	-666.90424	1039.04236	1217.3905	-560.85437	672.82452	930.91174	-580.79376	488.74667	936.67212	-729.77222	378.01682	945.31635	-864.40204	200.7782	973.05859	-896.3042	193.72685	1033.15613	-783.60986	73.20165	931.88031	-484.00919	680.58282	1320.04651	-473.09201	471.14969	1273.22974	-507.03372	284.35303	1277.57874	-522.69843	93.20687	1235.69617	-559.80347	40.90648	1181.25684	-369.02023	39.48506	1240.58679	-627.90863	1791.71362	1186.12183	-2845.1748	1034.25183	3360.27661	NaN	NaN	NaN	NaN	NaN	NaN
35	0.34	-514.06628	1766.02344	1083.29028	-493.90805	1738.74817	1223.85388	-618.69928	1656.94971	1078.1051	-609.7356	1624.8783	1219.79773	-639.95819	1525.54163	1137.35889	-687.18378	1252.5625	1148.28308	-499.82281	1462.61707	1116.52844	-444.86038	1288.88464	1117.84204	-689.19305	1353.0094	1202.19763	-573.23053	1508.57922	950.93353	-577.64398	1307.22913	869.22754	-577.72565	1166.44812	859.76575	-565.98755	1036.11157	843.52826	-508.11365	909.19409	869.73621	-553.90356	913.89148	836.58112	-536.30957	848.93903	831.96924	-547.47699	1488.23059	1317.63867	-571.34479	1295.52856	1400.92053	-554.49756	1150.38025	1417.72913	-521.21771	1035.18542	1435.52332	-470.04468	909.89801	1413.95703	-514.44287	905.49078	1448.97803	-475.4801	843.73468	1449.24841	-478.03714	982.88538	993.0484	-438.03604	983.40344	1244.79626	-672.14691	1032.69958	1105.08826	-659.37421	1040.2666	1220.27515	-548.77277	674.95593	931.83093	-565.38306	490.78937	937.36206	-713.36346	379.1351	947.77692	-846.28613	200.48271	975.05481	-877.4361	191.53645	1035.51917	-763.55713	75.53374	930.09595	-479.18399	680.44751	1321.12354	-471.64005	470.95618	1274.28076	-507.12802	284.42014	1278.15125	-522.64056	93.16606	1235.64587	-559.81543	40.97966	1181.20801	-368.87344	39.44687	1240.66064	-619.92603	1792.83826	1187.98352	-2845.20239	1034.1748	3360.2832	NaN	NaN	NaN	NaN	NaN	NaN
36	0.35	-506.69006	1767.05493	1084.36328	-485.74255	1739.99023	1224.91016	-610.9942	1657.9165	1079.79614	-601.45764	1626.01611	1221.39917	-631.93097	1526.77637	1139.62732	-679.53094	1254.0304	1151.58032	-491.89743	1463.58569	1117.82727	-437.11017	1289.80762	1119.14502	-681.8089	1355.05566	1206.67957	-566.75769	1509.1488	952.73022	-573.71259	1307.80701	871.12946	-575.02686	1167.151	861.56958	-565.47473	1036.99072	844.72864	-509.07147	909.09692	870.04724	-554.83215	914.4834	837.43884	-538.29382	849.02869	833.04382	-537.7287	1489.77917	1319.31006	-560.45233	1297.19739	1403.57764	-543.06122	1152.14355	1420.57617	-508.94226	1037.08521	1438.3363	-456.95261	912.27661	1416.20117	-501.05219	907.47186	1451.51294	-461.28418	846.18445	1451.7146	-471.61182	984.30811	994.09473	-430.71826	983.73602	1246.34412	-665.14941	1033.94458	1108.06555	-651.98712	1041.3158	1222.93005	-537.59998	676.91718	932.37622	-550.40826	492.81009	937.9649	-697.37469	379.86356	949.92841	-827.31854	198.93323	977.05298	-858.02368	188.3667	1037.68152	-742.42151	76.98805	928.98083	-475.71664	679.93811	1322.52222	-470.09686	470.81906	1275.14673	-506.81802	284.42874	1278.67896	-522.62097	93.21156	1235.53479	-559.81671	41.07695	1181.17224	-368.88812	39.35173	1240.62573	-611.98468	1793.95386	1189.64624	-2845.91504	1034.19556	3357.43457	NaN	NaN	NaN	NaN	NaN	NaN
37	0.36	-499.19748	1768.0282	1085.42188	-477.60931	1741.14978	1225.93909	-603.29602	1658.90173	1081.5072	-593.20636	1627.02478	1222.98083	-623.86511	1527.95435	1141.85095	-671.88562	1255.40369	1154.72668	-484.00735	1464.43579	1119.12585	-429.45901	1290.6156	1120.35339	-673.49799	1356.75757	1209.8728	-560.25214	1509.70935	954.56366	-569.80884	1308.40369	872.96472	-572.61688	1167.90515	863.27777	-564.54584	1037.5752	846.12762	-509.68173	908.88818	870.52063	-555.97144	914.9834	838.27869	-540.08484	849.35773	833.67609	-528.09912	1491.33459	1320.8656	-549.39435	1298.95056	1406.21106	-531.45197	1153.91528	1423.33447	-496.27164	1039.13135	1440.52136	-443.84781	914.75757	1418.35791	-487.64471	909.68909	1454.36963	-447.15936	848.7793	1454.19006	-464.93732	985.82404	995.09924	-423.59677	984.28528	1248.12219	-658.34406	1035.19104	1110.84937	-644.70776	1042.20447	1225.34595	-526.31281	679.09241	933.07678	-535.86914	494.62659	938.6123	-681.23615	379.70981	951.98932	-807.56946	196.21503	978.80957	-837.84161	184.16383	1039.6156	-720.16443	77.55697	928.20593	-472.0271	680.14563	1323.07117	-468.56689	470.56003	1275.93579	-506.05933	284.43631	1279.099	-522.51129	93.27176	1235.55579	-559.56427	41.06412	1180.9292	-368.73624	39.36648	1240.67615	-604.01514	1794.97314	1191.10242	-2845.3269	1034.16589	3360.45654	NaN	NaN	NaN	NaN	NaN	NaN
38	0.37	-491.53024	1769.08594	1086.5116	-469.51382	1742.24255	1226.87439	-595.73108	1659.98218	1084.06946	-585.00226	1628.02612	1224.47339	-615.88458	1529.04138	1143.9967	-664.24463	1256.67175	1157.78979	-476.17096	1465.27417	1120.36572	-422.76334	1291.35779	1121.69897	-665.27313	1358.32776	1212.99622	-553.80109	1510.18103	956.28979	-566.10754	1308.98608	874.66248	-570.45593	1168.60657	864.82404	-564.04077	1038.36487	847.1723	-510.31647	909.15692	871.03503	-556.9527	915.60785	839.29633	-541.57971	849.65112	834.51733	-518.58026	1492.91541	1322.26758	-538.43024	1300.802	1409.01978	-519.73297	1155.74646	1425.98425	-483.73276	1041.14001	1442.95374	-430.60666	917.22839	1420.43896	-474.06995	911.75482	1456.69128	-432.89041	851.48938	1456.45105	-458.24881	987.44006	996.3147	-416.61554	984.92804	1249.80542	-651.62958	1036.4259	1113.29089	-637.56787	1042.90442	1227.51611	-514.72485	681.33051	933.81805	-521.92175	496.36633	939.27057	-665.0697	378.81375	953.94073	-787.22571	192.46783	980.50299	-816.90656	178.93622	1041.53589	-696.90234	77.31036	927.80072	-468.76233	680.078	1323.82605	-466.81342	470.39462	1276.4082	-504.86957	284.44098	1279.51355	-522.33655	93.3298	1235.60767	-559.57306	41.12186	1180.91895	-368.81805	39.28184	1240.63416	-596.16589	1795.87109	1192.54614	-2845.15479	1033.98022	3360.35205	NaN	NaN	NaN	NaN	NaN	NaN
39	0.38	-484.23804	1769.77393	1087.35291	-461.46448	1743.25098	1227.71838	-588.01111	1660.56458	1084.91309	-576.84485	1628.9115	1225.89551	-607.9762	1530.11731	1146.07739	-656.72522	1257.87891	1160.66833	-468.43158	1465.98621	1121.53625	-415.43118	1291.9425	1123.01367	-657.08081	1359.71411	1215.93677	-547.20068	1510.42017	958.06891	-562.44348	1309.56335	876.35144	-568.35175	1169.3866	866.3053	-563.4892	1039.03857	848.39362	-510.72986	909.35364	871.58295	-557.67957	916.21222	840.25659	-542.79608	850.245	835.15881	-509.18869	1494.52991	1323.65283	-527.41394	1302.62524	1411.38416	-507.89987	1157.63086	1428.495	-471.00037	1043.25854	1445.13721	-417.3736	919.80951	1422.36987	-460.41299	914.0014	1459.11108	-418.64767	854.21521	1458.64148	-451.28049	989.14807	997.82465	-409.83478	985.63025	1251.70435	-644.5874	1037.51074	1115.28076	-630.48163	1043.46802	1229.40723	-503.64066	683.33673	934.52777	-508.21057	497.8465	939.97137	-648.85681	376.99173	955.69934	-766.11102	187.63647	982.04138	-795.34534	172.8261	1043.1073	-672.6347	76.32336	927.69434	-465.45096	679.8783	1324.53101	-465.04968	470.18298	1277.1123	-503.57712	284.37692	1279.86279	-522.17834	93.37466	1235.62915	-559.67389	41.17068	1180.88599	-368.79837	39.21877	1240.64282	-588.29474	1796.67773	1193.89722	-2845.29834	1034.0083	3360.45435	NaN	NaN	NaN	NaN	NaN	NaN
40	0.39	-476.46631	1770.36682	1088.59424	-453.42685	1744.18542	1228.56445	-580.50708	1661.19458	1086.35388	-568.72253	1629.77954	1227.26892	-600.06818	1531.11023	1148.06738	-649.20813	1258.92188	1163.34326	-460.76193	1466.6377	1122.67297	-408.14307	1292.5896	1124.29321	-648.97516	1360.98914	1218.76233	-540.93689	1510.85181	959.6333	-558.96472	1310.12537	878.04285	-566.19977	1169.93591	867.87836	-562.76508	1039.60046	849.91351	-511.15506	909.52985	872.03418	-558.4129	916.72485	841.20935	-543.6933	850.52917	836.09943	-499.91269	1496.07861	1324.93469	-516.5047	1304.16418	1413.12805	-496.03812	1159.49756	1430.84155	-458.28232	1045.52161	1447.50391	-404.13699	922.35577	1424.19971	-446.68341	916.32739	1461.39685	-404.46005	857.0498	1460.68091	-443.80188	991.03839	999.34662	-403.23029	986.29596	1253.71057	-637.51617	1038.53833	1116.87537	-623.5744	1043.92749	1231.07935	-493.27243	685.31451	934.97534	-494.87741	499.18796	940.73395	-632.23431	374.43466	956.96686	-744.13055	181.82805	983.51019	-772.82233	165.64093	1044.53394	-647.35358	74.70512	927.83362	-461.99756	679.5423	1325.29016	-463.36487	469.91595	1277.67773	-502.40399	284.29694	1280.13745	-522.02637	93.41329	1235.65198	-559.59467	41.2707	1180.80066	-368.69009	39.23982	1240.7688	-580.43066	1797.45813	1195.14111	-2845.11938	1034.19397	3360.34399	NaN	NaN	NaN	NaN	NaN	NaN
